<svg version="1.1" xmlns="http://www.w3.org/2000/svg" viewBox="0 0 2050.4136826226313 1053.4730033168162" width="4100.827365245263" height="2106.9460066336324">
  <!-- svg-source:excalidraw -->
  
  <defs>
    <style class="style-fonts">
      @font-face {
        font-family: "Virgil";
        src: url("https://excalidraw.com/Virgil.woff2");
      }
      @font-face {
        font-family: "Cascadia";
        src: url("https://excalidraw.com/Cascadia.woff2");
      }
    </style>
    
  </defs>
  <g stroke-linecap="round" transform="translate(10 75.57859513617223) rotate(0 1015.2068413113157 483.947204090322)"><path d="M32 0 M32 0 C464.59 0, 897.18 0, 1998.41 0 M1998.41 0 C2019.75 0, 2030.41 10.67, 2030.41 32 M2030.41 32 C2030.41 317.02, 2030.41 602.04, 2030.41 935.89 M2030.41 935.89 C2030.41 957.23, 2019.75 967.89, 1998.41 967.89 M1998.41 967.89 C1548.05 967.89, 1097.69 967.89, 32 967.89 M32 967.89 C10.67 967.89, 0 957.23, 0 935.89 M0 935.89 C0 721.27, 0 506.64, 0 32 M0 32 C0 10.67, 10.67 0, 32 0" stroke="#495057" stroke-width="2.5" fill="none" stroke-dasharray="8 10"></path></g><g transform="translate(35.87301457030662 10) rotate(0 116.015625 21.600000000000364)"><text x="0" y="0" font-family="Cascadia, Segoe UI Emoji" font-size="36px" fill="#495057" text-anchor="start" style="white-space: pre;" direction="ltr" dominant-baseline="text-before-edge">Client flow</text></g><g transform="translate(92.02250466259284 292.67428252103855) rotate(0 33.13623809814453 15.318586547859013)"><text x="0" y="0" font-family="Virgil, Segoe UI Emoji" font-size="24.509738476573784px" fill="#000000" text-anchor="start" style="white-space: pre;" direction="ltr" dominant-baseline="text-before-edge">Client</text></g><g stroke-linecap="round"><g transform="translate(77.70214957004464 259.5163094951731) rotate(0 43.44272091590574 -36.72598109937735)" fill-rule="evenodd"><path d="M0.9 -1.23 L5.14 -38.43 L8.81 -47.21 L15.28 -56.86 L22.73 -67.18 L32.96 -71 L41.62 -72.25 L49.02 -74.08 L56.71 -67.15 L63.68 -64.23 L75.95 -44.42 L84.08 -28.64 L88.52 -16.17 L87.65 -11.09 L85.02 -3.13 L77.81 -0.61 L54.44 2.08 L0.02 -0.37" stroke="none" stroke-width="0" fill="#868e96" fill-rule="evenodd"></path><path d="M0.83 0.24 C2.66 -8.08, 4.05 -36.54, 10.39 -49.05 C16.72 -61.56, 29.01 -73.91, 38.85 -74.81 C48.68 -75.72, 61.99 -66.14, 69.41 -54.5 C76.82 -42.85, 94.88 -13.86, 83.31 -4.93 C71.73 4, 13.89 -1.69, -0.04 -0.92 M-0.2 -0.68 C1.62 -8.87, 3.1 -35.28, 10 -47.48 C16.89 -59.67, 31.32 -72.86, 41.16 -73.85 C50.99 -74.84, 62.24 -64.96, 69.03 -53.4 C75.81 -41.83, 93.15 -13.55, 81.87 -4.45 C70.59 4.65, 14.96 0.17, 1.35 1.21" stroke="#000000" stroke-width="1" fill="none"></path></g></g><mask></mask><g stroke-linecap="round" transform="translate(99.01496563663386 146.7199614191013) rotate(0 21.312816066585583 18.648714058263067)"><path d="M18.06 1.04 C22.21 0.2, 27.85 0.89, 31.57 2.65 C35.28 4.41, 38.65 7.81, 40.36 11.59 C42.08 15.38, 43.2 21.37, 41.87 25.35 C40.54 29.33, 36.47 33.49, 32.39 35.48 C28.31 37.47, 21.84 38.07, 17.4 37.29 C12.97 36.51, 8.54 33.66, 5.76 30.78 C2.98 27.9, 0.78 24.04, 0.72 20.01 C0.65 15.99, 2.05 10.01, 5.35 6.62 C8.66 3.23, 17.63 0.83, 20.55 -0.34 C23.46 -1.5, 22.84 -0.71, 22.83 -0.38 M16.26 -1.15 C20.46 -1.93, 28.8 0.86, 33.14 2.98 C37.49 5.1, 40.76 8.03, 42.32 11.58 C43.89 15.13, 44.4 20.38, 42.53 24.3 C40.65 28.22, 35.31 32.76, 31.08 35.1 C26.86 37.45, 21.35 39, 17.18 38.37 C13.02 37.75, 8.92 34.75, 6.09 31.33 C3.27 27.9, 0.65 21.83, 0.22 17.83 C-0.2 13.82, 0.47 10.21, 3.57 7.3 C6.66 4.4, 16.52 1.62, 18.78 0.41 C21.05 -0.81, 17.36 -0.36, 17.17 -0.01" stroke="none" stroke-width="0" fill="#868e96"></path><path d="M11.76 2.02 C15.63 0.27, 22.07 -0.41, 26.39 0.47 C30.71 1.35, 35 3.99, 37.65 7.28 C40.3 10.57, 42.55 16.18, 42.31 20.2 C42.07 24.22, 39.36 28.6, 36.18 31.39 C33.01 34.18, 27.52 36.46, 23.25 36.91 C18.97 37.37, 14.16 36.32, 10.54 34.12 C6.92 31.91, 3.09 27.41, 1.52 23.69 C-0.05 19.98, -1.28 15.53, 1.12 11.83 C3.53 8.13, 12.67 3.32, 15.94 1.5 C19.2 -0.32, 20.75 0.73, 20.71 0.91 M29.63 0.96 C33.73 2.64, 38.61 7.56, 40.8 11.22 C42.99 14.88, 43.86 19.32, 42.76 22.91 C41.66 26.51, 37.93 30.17, 34.21 32.8 C30.49 35.43, 25.02 38.66, 20.44 38.68 C15.86 38.69, 10.23 35.79, 6.71 32.9 C3.19 30, -0.22 25.57, -0.66 21.33 C-1.1 17.08, 1.13 10.66, 4.07 7.43 C7.01 4.2, 12.74 2.77, 17 1.97 C21.26 1.17, 27.22 2.64, 29.63 2.62 C32.04 2.6, 31.42 1.89, 31.46 1.86" stroke="#000000" stroke-width="1" fill="none"></path></g><g stroke-linecap="round"><g transform="translate(184.33558332078428 230.33817565911158) rotate(0 75.17539726932864 -0.192548419097875)"><path d="M0 0 C25.06 -0.06, 125.29 -0.32, 150.35 -0.39" stroke="#495057" stroke-width="2.5" fill="none" stroke-dasharray="8 10"></path></g><g transform="translate(184.33558332078428 230.33817565911158) rotate(0 75.17539726932864 -0.192548419097875)"><path d="M122.19 9.95 C131.2 6.64, 140.22 3.33, 150.35 -0.39" stroke="#495057" stroke-width="2.5" fill="none"></path></g><g transform="translate(184.33558332078428 230.33817565911158) rotate(0 75.17539726932864 -0.192548419097875)"><path d="M122.13 -10.57 C131.17 -7.31, 140.2 -4.05, 150.35 -0.39" stroke="#495057" stroke-width="2.5" fill="none"></path></g></g><mask></mask><g stroke-linecap="round" transform="translate(342.45834877287234 153.61232445457426) rotate(0 153.339359689905 67.57327715148404)"><path d="M32 0 M32 0 C92.24 0, 152.49 0, 274.68 0 M32 0 C85.61 0, 139.21 0, 274.68 0 M274.68 0 C296.01 0, 306.68 10.67, 306.68 32 M274.68 0 C296.01 0, 306.68 10.67, 306.68 32 M306.68 32 C306.68 53.2, 306.68 74.4, 306.68 103.15 M306.68 32 C306.68 57.49, 306.68 82.97, 306.68 103.15 M306.68 103.15 C306.68 124.48, 296.01 135.15, 274.68 135.15 M306.68 103.15 C306.68 124.48, 296.01 135.15, 274.68 135.15 M274.68 135.15 C224.82 135.15, 174.95 135.15, 32 135.15 M274.68 135.15 C205.73 135.15, 136.78 135.15, 32 135.15 M32 135.15 C10.67 135.15, 0 124.48, 0 103.15 M32 135.15 C10.67 135.15, 0 124.48, 0 103.15 M0 103.15 C0 81.57, 0 60, 0 32 M0 103.15 C0 86.28, 0 69.42, 0 32 M0 32 C0 10.67, 10.67 0, 32 0 M0 32 C0 10.67, 10.67 0, 32 0" stroke="#495057" stroke-width="2" fill="none"></path></g><g transform="translate(411.07121480361275 209.35217953800384) rotate(0 90.234375 16.800000000000182)"><text x="0" y="0" font-family="Cascadia, Segoe UI Emoji" font-size="28px" fill="#495057" text-anchor="start" style="white-space: pre;" direction="ltr" dominant-baseline="text-before-edge">RFID READER</text></g><g stroke-linecap="round"><g transform="translate(489.43937237714636 296.03600091231965) rotate(0 0.32029862486979255 57.69718279857352)"><path d="M0 0 C0.11 19.23, 0.53 96.16, 0.64 115.39" stroke="#495057" stroke-width="2.5" fill="none" stroke-dasharray="8 10"></path></g><g transform="translate(489.43937237714636 296.03600091231965) rotate(0 0.32029862486979255 57.69718279857352)"><path d="M-9.78 87.26 C-5.63 98.47, -1.47 109.68, 0.64 115.39" stroke="#495057" stroke-width="2.5" fill="none"></path></g><g transform="translate(489.43937237714636 296.03600091231965) rotate(0 0.32029862486979255 57.69718279857352)"><path d="M10.74 87.15 C6.72 98.4, 2.69 109.66, 0.64 115.39" stroke="#495057" stroke-width="2.5" fill="none"></path></g></g><mask></mask><g stroke-linecap="round" transform="translate(397.55655937331903 413.509544267974) rotate(0 92.52341025356964 107.59744900274745)"><path d="M116.25 27 M116.25 27 C126.81 39.52, 137.37 52.04, 161.8 81 M116.25 27 C126.5 39.16, 136.75 51.31, 161.8 81 M161.8 81 C185.05 108, 185.05 108, 161.8 135 M161.8 81 C185.05 108, 185.05 108, 161.8 135 M161.8 135 C149.17 149.74, 136.55 164.49, 116.25 188.19 M161.8 135 C147.1 152.16, 132.41 169.32, 116.25 188.19 M116.25 188.19 C93 215.19, 93 215.19, 69.75 188.19 M116.25 188.19 C93 215.19, 93 215.19, 69.75 188.19 M69.75 188.19 C60.33 177.42, 50.91 166.64, 23.25 135 M69.75 188.19 C52.98 169.01, 36.21 149.83, 23.25 135 M23.25 135 C0 108, 0 108, 23.25 81 M23.25 135 C0 108, 0 108, 23.25 81 M23.25 81 C39.41 62.23, 55.57 43.47, 69.75 27 M23.25 81 C37.73 64.19, 52.2 47.38, 69.75 27 M69.75 27 C93 0, 93 0, 116.25 27 M69.75 27 C93 0, 93 0, 116.25 27" stroke="#495057" stroke-width="2" fill="none"></path></g><g transform="translate(451.6151810945048 483.1619991779662) rotate(0 41.015625 33.600000000000364)"><text x="0" y="0" font-family="Cascadia, Segoe UI Emoji" font-size="28px" fill="#495057" text-anchor="start" style="white-space: pre;" direction="ltr" dominant-baseline="text-before-edge">RFID </text><text x="0" y="33.6" font-family="Cascadia, Segoe UI Emoji" font-size="28px" fill="#495057" text-anchor="start" style="white-space: pre;" direction="ltr" dominant-baseline="text-before-edge">valid</text></g><g stroke-linecap="round"><g transform="translate(584.5837062126702 518.516448322931) rotate(0 77.03575771131455 0.2175697696102361)"><path d="M0 0 C25.68 0.07, 128.39 0.36, 154.07 0.44" stroke="#495057" stroke-width="2.5" fill="none" stroke-dasharray="8 10"></path></g><g transform="translate(584.5837062126702 518.516448322931) rotate(0 77.03575771131455 0.2175697696102361)"><path d="M125.85 10.62 C134.71 7.42, 143.57 4.22, 154.07 0.44" stroke="#495057" stroke-width="2.5" fill="none"></path></g><g transform="translate(584.5837062126702 518.516448322931) rotate(0 77.03575771131455 0.2175697696102361)"><path d="M125.91 -9.91 C134.75 -6.66, 143.59 -3.41, 154.07 0.44" stroke="#495057" stroke-width="2.5" fill="none"></path></g></g><mask></mask><g transform="translate(601.3362635668454 465.50663245116993) rotate(0 41.015625 16.800000000000182)"><text x="0" y="0" font-family="Cascadia, Segoe UI Emoji" font-size="28px" fill="#495057" text-anchor="start" style="white-space: pre;" direction="ltr" dominant-baseline="text-before-edge">Valid</text></g><g stroke-linecap="round"><g transform="translate(492.55339939310034 628.9565401696891) rotate(0 122.46346282148988 55.12499527145883)"><path d="M0 0 C2.64 17.34, -26.22 87.62, 15.81 104.02 C57.84 120.42, 212.76 99.34, 252.15 98.41" stroke="#495057" stroke-width="2.5" fill="none" stroke-dasharray="8 10"></path></g><g transform="translate(492.55339939310034 628.9565401696891) rotate(0 122.46346282148988 55.12499527145883)"><path d="M224.85 110.83 C231.57 107.78, 238.29 104.72, 252.15 98.41" stroke="#495057" stroke-width="2.5" fill="none"></path></g><g transform="translate(492.55339939310034 628.9565401696891) rotate(0 122.46346282148988 55.12499527145883)"><path d="M223.25 90.38 C230.36 92.35, 237.47 94.33, 252.15 98.41" stroke="#495057" stroke-width="2.5" fill="none"></path></g></g><mask></mask><g stroke-linecap="round" transform="translate(746.3451360395138 466.52639667497715) rotate(0 187.71110532987586 52.97705640026288)"><path d="M26.49 0 M26.49 0 C143.39 0, 260.29 0, 348.93 0 M26.49 0 C140.44 0, 254.4 0, 348.93 0 M348.93 0 C366.59 0, 375.42 8.83, 375.42 26.49 M348.93 0 C366.59 0, 375.42 8.83, 375.42 26.49 M375.42 26.49 C375.42 39.57, 375.42 52.66, 375.42 79.47 M375.42 26.49 C375.42 39.01, 375.42 51.53, 375.42 79.47 M375.42 79.47 C375.42 97.12, 366.59 105.95, 348.93 105.95 M375.42 79.47 C375.42 97.12, 366.59 105.95, 348.93 105.95 M348.93 105.95 C240.12 105.95, 131.32 105.95, 26.49 105.95 M348.93 105.95 C269.87 105.95, 190.8 105.95, 26.49 105.95 M26.49 105.95 C8.83 105.95, 0 97.12, 0 79.47 M26.49 105.95 C8.83 105.95, 0 97.12, 0 79.47 M0 79.47 C0 63.86, 0 48.25, 0 26.49 M0 79.47 C0 64.58, 0 49.69, 0 26.49 M0 26.49 C0 8.83, 8.83 0, 26.49 0 M0 26.49 C0 8.83, 8.83 0, 26.49 0" stroke="#495057" stroke-width="2" fill="none"></path></g><g transform="translate(776.3239622000747 483.2483241125301) rotate(0 158.203125 36)"><text x="158.203125" y="0" font-family="Cascadia, Segoe UI Emoji" font-size="20px" fill="#495057" text-anchor="middle" style="white-space: pre;" direction="ltr" dominant-baseline="text-before-edge">Get client information and </text><text x="158.203125" y="24" font-family="Cascadia, Segoe UI Emoji" font-size="20px" fill="#495057" text-anchor="middle" style="white-space: pre;" direction="ltr" dominant-baseline="text-before-edge">purchase info</text><text x="158.203125" y="48" font-family="Cascadia, Segoe UI Emoji" font-size="20px" fill="#495057" text-anchor="middle" style="white-space: pre;" direction="ltr" dominant-baseline="text-before-edge">(items + weight)</text></g><g stroke-linecap="round"><g transform="translate(1125.690494458 515.2658405990842) rotate(0 57.443191343519175 0)"><path d="M0 0 C19.15 0, 95.74 0, 114.89 0" stroke="#495057" stroke-width="2.5" fill="none" stroke-dasharray="8 10"></path></g><g transform="translate(1125.690494458 515.2658405990842) rotate(0 57.443191343519175 0)"><path d="M86.7 10.26 C97.86 6.2, 109.03 2.13, 114.89 0" stroke="#495057" stroke-width="2.5" fill="none"></path></g><g transform="translate(1125.690494458 515.2658405990842) rotate(0 57.443191343519175 0)"><path d="M86.7 -10.26 C97.86 -6.2, 109.03 -2.13, 114.89 0" stroke="#495057" stroke-width="2.5" fill="none"></path></g></g><mask></mask><g stroke-linecap="round" transform="translate(1249.0521020973592 464.4144908851613) rotate(0 121.94907014729506 52.73473303666833)"><path d="M26.37 0 M26.37 0 C92.54 0, 158.71 0, 217.53 0 M26.37 0 C75.01 0, 123.66 0, 217.53 0 M217.53 0 C235.11 0, 243.9 8.79, 243.9 26.37 M217.53 0 C235.11 0, 243.9 8.79, 243.9 26.37 M243.9 26.37 C243.9 37.36, 243.9 48.35, 243.9 79.1 M243.9 26.37 C243.9 45.01, 243.9 63.65, 243.9 79.1 M243.9 79.1 C243.9 96.68, 235.11 105.47, 217.53 105.47 M243.9 79.1 C243.9 96.68, 235.11 105.47, 217.53 105.47 M217.53 105.47 C177.39 105.47, 137.24 105.47, 26.37 105.47 M217.53 105.47 C147.8 105.47, 78.08 105.47, 26.37 105.47 M26.37 105.47 C8.79 105.47, 0 96.68, 0 79.1 M26.37 105.47 C8.79 105.47, 0 96.68, 0 79.1 M0 79.1 C0 62.52, 0 45.94, 0 26.37 M0 79.1 C0 61.02, 0 42.93, 0 26.37 M0 26.37 C0 8.79, 8.79 0, 26.37 0 M0 26.37 C0 8.79, 8.79 0, 26.37 0" stroke="#495057" stroke-width="2" fill="none"></path></g><g transform="translate(1283.3721680435538 494.54862404897176) rotate(0 93.75 24)"><text x="93.75" y="0" font-family="Cascadia, Segoe UI Emoji" font-size="20px" fill="#495057" text-anchor="middle" style="white-space: pre;" direction="ltr" dominant-baseline="text-before-edge">If purchase ok</text><text x="93.75" y="24" font-family="Cascadia, Segoe UI Emoji" font-size="20px" fill="#495057" text-anchor="middle" style="white-space: pre;" direction="ltr" dominant-baseline="text-before-edge">make transaction</text></g><g transform="translate(536.5490443183407 626.5328407157376) rotate(0 57.421875 16.800000000000182)"><text x="0" y="0" font-family="Cascadia, Segoe UI Emoji" font-size="28px" fill="#495057" text-anchor="start" style="white-space: pre;" direction="ltr" dominant-baseline="text-before-edge">Invalid</text></g><g stroke-linecap="round" transform="translate(753.2089246735613 665.8479649198489) rotate(0 187.71110532987586 52.97705640026288)"><path d="M26.49 0 M26.49 0 C108.11 0, 189.74 0, 348.93 0 M26.49 0 C148.59 0, 270.68 0, 348.93 0 M348.93 0 C366.59 0, 375.42 8.83, 375.42 26.49 M348.93 0 C366.59 0, 375.42 8.83, 375.42 26.49 M375.42 26.49 C375.42 37.62, 375.42 48.75, 375.42 79.47 M375.42 26.49 C375.42 44.21, 375.42 61.94, 375.42 79.47 M375.42 79.47 C375.42 97.12, 366.59 105.95, 348.93 105.95 M375.42 79.47 C375.42 97.12, 366.59 105.95, 348.93 105.95 M348.93 105.95 C250.26 105.95, 151.59 105.95, 26.49 105.95 M348.93 105.95 C253.57 105.95, 158.21 105.95, 26.49 105.95 M26.49 105.95 C8.83 105.95, 0 97.12, 0 79.47 M26.49 105.95 C8.83 105.95, 0 97.12, 0 79.47 M0 79.47 C0 61.24, 0 43.02, 0 26.49 M0 79.47 C0 66.12, 0 52.77, 0 26.49 M0 26.49 C0 8.83, 8.83 0, 26.49 0 M0 26.49 C0 8.83, 8.83 0, 26.49 0" stroke="#495057" stroke-width="2" fill="none"></path></g><g transform="translate(769.3761597143166 693.8342976582535) rotate(0 169.921875 24)"><text x="169.921875" y="0" font-family="Cascadia, Segoe UI Emoji" font-size="20px" fill="#495057" text-anchor="middle" style="white-space: pre;" direction="ltr" dominant-baseline="text-before-edge">Register user or </text><text x="169.921875" y="24" font-family="Cascadia, Segoe UI Emoji" font-size="20px" fill="#495057" text-anchor="middle" style="white-space: pre;" direction="ltr" dominant-baseline="text-before-edge">ask for email if RFID missing</text></g><g stroke-linecap="round"><g transform="translate(966.4934133442566 662.8374907374819) rotate(0 -152.43836426485905 -70.30334487063465)"><path d="M0 0 C-6.25 -7.6, 8.46 -38.67, -37.49 -45.59 C-83.43 -52.51, -231.27 -25.69, -275.69 -41.52 C-320.11 -57.36, -299.28 -124.09, -304 -140.61" stroke="#495057" stroke-width="2.5" fill="none" stroke-dasharray="8 10"></path></g><g transform="translate(966.4934133442566 662.8374907374819) rotate(0 -152.43836426485905 -70.30334487063465)"><path d="M-293.96 -112.34 C-296.17 -118.57, -298.39 -124.81, -304 -140.61" stroke="#495057" stroke-width="2.5" fill="none"></path></g><g transform="translate(966.4934133442566 662.8374907374819) rotate(0 -152.43836426485905 -70.30334487063465)"><path d="M-314.48 -112.5 C-312.17 -118.7, -309.85 -124.9, -304 -140.61" stroke="#495057" stroke-width="2.5" fill="none"></path></g></g><mask></mask><g stroke-linecap="round"><g transform="translate(1498.5684490508556 520.1796040505251) rotate(0 48.86016239572655 0)"><path d="M0 0 C16.29 0, 81.43 0, 97.72 0" stroke="#495057" stroke-width="2.5" fill="none" stroke-dasharray="8 10"></path></g><g transform="translate(1498.5684490508556 520.1796040505251) rotate(0 48.86016239572655 0)"><path d="M69.53 10.26 C76.82 7.61, 84.1 4.96, 97.72 0" stroke="#495057" stroke-width="2.5" fill="none"></path></g><g transform="translate(1498.5684490508556 520.1796040505251) rotate(0 48.86016239572655 0)"><path d="M69.53 -10.26 C76.82 -7.61, 84.1 -4.96, 97.72 0" stroke="#495057" stroke-width="2.5" fill="none"></path></g></g><mask></mask><g stroke-linecap="round" transform="translate(1595.0823500794504 446.58775451622023) rotate(0 191.21816641290388 63.94045943144465)"><path d="M31.97 0 M31.97 0 C147.62 0, 263.27 0, 350.47 0 M31.97 0 C138.4 0, 244.84 0, 350.47 0 M350.47 0 C371.78 0, 382.44 10.66, 382.44 31.97 M350.47 0 C371.78 0, 382.44 10.66, 382.44 31.97 M382.44 31.97 C382.44 52.31, 382.44 72.64, 382.44 95.91 M382.44 31.97 C382.44 48.87, 382.44 65.77, 382.44 95.91 M382.44 95.91 C382.44 117.22, 371.78 127.88, 350.47 127.88 M382.44 95.91 C382.44 117.22, 371.78 127.88, 350.47 127.88 M350.47 127.88 C225.3 127.88, 100.13 127.88, 31.97 127.88 M350.47 127.88 C256.75 127.88, 163.03 127.88, 31.97 127.88 M31.97 127.88 C10.66 127.88, 0 117.22, 0 95.91 M31.97 127.88 C10.66 127.88, 0 117.22, 0 95.91 M0 95.91 C0 74.48, 0 53.05, 0 31.97 M0 95.91 C0 79.07, 0 62.23, 0 31.97 M0 31.97 C0 10.66, 10.66 0, 31.97 0 M0 31.97 C0 10.66, 10.66 0, 31.97 0" stroke="#495057" stroke-width="2" fill="none"></path></g><g transform="translate(1620.6011246623548 488.9410614733788) rotate(0 169.921875 24)"><text x="169.921875" y="0" font-family="Cascadia, Segoe UI Emoji" font-size="20px" fill="#495057" text-anchor="middle" style="white-space: pre;" direction="ltr" dominant-baseline="text-before-edge">Update items, client balance,</text><text x="169.921875" y="24" font-family="Cascadia, Segoe UI Emoji" font-size="20px" fill="#495057" text-anchor="middle" style="white-space: pre;" direction="ltr" dominant-baseline="text-before-edge">and daily record</text></g><g stroke-linecap="round" transform="translate(51.38700834232441 447.30408258874195) rotate(0 121.75210929337845 52.50858850083296)"><path d="M26.25 0 M26.25 0 C74.16 0, 122.06 0, 217.25 0 M26.25 0 C76.81 0, 127.37 0, 217.25 0 M217.25 0 C234.75 0, 243.5 8.75, 243.5 26.25 M217.25 0 C234.75 0, 243.5 8.75, 243.5 26.25 M243.5 26.25 C243.5 47.08, 243.5 67.9, 243.5 78.76 M243.5 26.25 C243.5 38.38, 243.5 50.51, 243.5 78.76 M243.5 78.76 C243.5 96.27, 234.75 105.02, 217.25 105.02 M243.5 78.76 C243.5 96.27, 234.75 105.02, 217.25 105.02 M217.25 105.02 C163.76 105.02, 110.27 105.02, 26.25 105.02 M217.25 105.02 C177.47 105.02, 137.69 105.02, 26.25 105.02 M26.25 105.02 C8.75 105.02, 0 96.27, 0 78.76 M26.25 105.02 C8.75 105.02, 0 96.27, 0 78.76 M0 78.76 C0 59.89, 0 41.02, 0 26.25 M0 78.76 C0 60.38, 0 42.01, 0 26.25 M0 26.25 C0 8.75, 8.75 0, 26.25 0 M0 26.25 C0 8.75, 8.75 0, 26.25 0" stroke="#495057" stroke-width="2" fill="none"></path></g><g transform="translate(131.2396750995067 466.3478937397358) rotate(0 49.21875 33.600000000000364)"><text x="0" y="0" font-family="Cascadia, Segoe UI Emoji" font-size="28px" fill="#495057" text-anchor="start" style="white-space: pre;" direction="ltr" dominant-baseline="text-before-edge">Weight</text><text x="0" y="33.6" font-family="Cascadia, Segoe UI Emoji" font-size="28px" fill="#495057" text-anchor="start" style="white-space: pre;" direction="ltr" dominant-baseline="text-before-edge">launch</text></g><g stroke-linecap="round"><g transform="translate(212.9876489051676 237.39551394919727) rotate(0 0 102.5370743641106)"><path d="M0 0 C0 34.18, 0 170.9, 0 205.07" stroke="#495057" stroke-width="2.5" fill="none" stroke-dasharray="8 10"></path></g><g transform="translate(212.9876489051676 237.39551394919727) rotate(0 0 102.5370743641106)"><path d="M-10.26 176.88 C-7.8 183.65, -5.34 190.41, 0 205.07" stroke="#495057" stroke-width="2.5" fill="none"></path></g><g transform="translate(212.9876489051676 237.39551394919727) rotate(0 0 102.5370743641106)"><path d="M10.26 176.88 C7.8 183.65, 5.34 190.41, 0 205.07" stroke="#495057" stroke-width="2.5" fill="none"></path></g></g><mask></mask><g stroke-linecap="round"><g transform="translate(209.5782648853492 554.9126338199349) rotate(0 -0.4000408026158766 61.081062555341305)"><path d="M0 0 C-0.13 20.36, -0.67 101.8, -0.8 122.16" stroke="#495057" stroke-width="2.5" fill="none" stroke-dasharray="8 10"></path></g><g transform="translate(209.5782648853492 554.9126338199349) rotate(0 -0.4000408026158766 61.081062555341305)"><path d="M-10.88 93.9 C-8.25 101.26, -5.63 108.61, -0.8 122.16" stroke="#495057" stroke-width="2.5" fill="none"></path></g><g transform="translate(209.5782648853492 554.9126338199349) rotate(0 -0.4000408026158766 61.081062555341305)"><path d="M9.64 94.04 C6.93 101.36, 4.21 108.68, -0.8 122.16" stroke="#495057" stroke-width="2.5" fill="none"></path></g></g><mask></mask><g transform="translate(230.6832027464461 587.5842716911957) rotate(0 52.734375 24)"><text x="0" y="0" font-family="Cascadia, Segoe UI Emoji" font-size="20px" fill="#495057" text-anchor="start" style="white-space: pre;" direction="ltr" dominant-baseline="text-before-edge">TX Weight</text><text x="0" y="24" font-family="Cascadia, Segoe UI Emoji" font-size="20px" fill="#495057" text-anchor="start" style="white-space: pre;" direction="ltr" dominant-baseline="text-before-edge">to RPI</text></g><g stroke-linecap="round" transform="translate(64.02190850093757 686.3952702055303) rotate(0 121.75210929337845 64.37140518120941)"><path d="M32 0 M32 0 C76.05 0, 120.1 0, 211.5 0 M32 0 C85.65 0, 139.3 0, 211.5 0 M211.5 0 C232.84 0, 243.5 10.67, 243.5 32 M211.5 0 C232.84 0, 243.5 10.67, 243.5 32 M243.5 32 C243.5 53.21, 243.5 74.41, 243.5 96.74 M243.5 32 C243.5 48.14, 243.5 64.28, 243.5 96.74 M243.5 96.74 C243.5 118.08, 232.84 128.74, 211.5 128.74 M243.5 96.74 C243.5 118.08, 232.84 128.74, 211.5 128.74 M211.5 128.74 C160.17 128.74, 108.84 128.74, 32 128.74 M211.5 128.74 C146.59 128.74, 81.67 128.74, 32 128.74 M32 128.74 C10.67 128.74, 0 118.08, 0 96.74 M32 128.74 C10.67 128.74, 0 118.08, 0 96.74 M0 96.74 C0 78.34, 0 59.93, 0 32 M0 96.74 C0 71.08, 0 45.42, 0 32 M0 32 C0 10.67, 10.67 0, 32 0 M0 32 C0 10.67, 10.67 0, 32 0" stroke="#495057" stroke-width="2" fill="none"></path></g><g transform="translate(94.48628806766101 701.7207532459288) rotate(0 93.75 48)"><text x="0" y="0" font-family="Cascadia, Segoe UI Emoji" font-size="20px" fill="#495057" text-anchor="start" style="white-space: pre;" direction="ltr" dominant-baseline="text-before-edge">Process and </text><text x="0" y="24" font-family="Cascadia, Segoe UI Emoji" font-size="20px" fill="#495057" text-anchor="start" style="white-space: pre;" direction="ltr" dominant-baseline="text-before-edge">keep the </text><text x="0" y="48" font-family="Cascadia, Segoe UI Emoji" font-size="20px" fill="#495057" text-anchor="start" style="white-space: pre;" direction="ltr" dominant-baseline="text-before-edge">weight available</text><text x="0" y="72" font-family="Cascadia, Segoe UI Emoji" font-size="20px" fill="#495057" text-anchor="start" style="white-space: pre;" direction="ltr" dominant-baseline="text-before-edge">for request</text></g><g stroke-linecap="round"><g transform="translate(205.9124063720883 823.6998293196539) rotate(0 262.89722926300055 38.12924439235121)"><path d="M0 0 C7.57 12.16, -43.52 62.39, 45.42 72.99 C134.36 83.59, 452.27 65.16, 533.64 63.59" stroke="#495057" stroke-width="2.5" fill="none" stroke-dasharray="8 10"></path></g><g transform="translate(205.9124063720883 823.6998293196539) rotate(0 262.89722926300055 38.12924439235121)"><path d="M505.85 74.91 C512.15 72.35, 518.45 69.78, 533.64 63.59" stroke="#495057" stroke-width="2.5" fill="none"></path></g><g transform="translate(205.9124063720883 823.6998293196539) rotate(0 262.89722926300055 38.12924439235121)"><path d="M505.08 54.41 C511.55 56.49, 518.03 58.57, 533.64 63.59" stroke="#495057" stroke-width="2.5" fill="none"></path></g></g><mask></mask><g stroke-linecap="round" transform="translate(751.3431717234271 832.3585939058667) rotate(0 212.85203231120067 52.97705640026288)"><path d="M26.49 0 M26.49 0 C131.96 0, 237.44 0, 399.22 0 M26.49 0 C111.6 0, 196.7 0, 399.22 0 M399.22 0 C416.87 0, 425.7 8.83, 425.7 26.49 M399.22 0 C416.87 0, 425.7 8.83, 425.7 26.49 M425.7 26.49 C425.7 37.59, 425.7 48.7, 425.7 79.47 M425.7 26.49 C425.7 46.47, 425.7 66.45, 425.7 79.47 M425.7 79.47 C425.7 97.12, 416.87 105.95, 399.22 105.95 M425.7 79.47 C425.7 97.12, 416.87 105.95, 399.22 105.95 M399.22 105.95 C253.46 105.95, 107.7 105.95, 26.49 105.95 M399.22 105.95 C312.46 105.95, 225.7 105.95, 26.49 105.95 M26.49 105.95 C8.83 105.95, 0 97.12, 0 79.47 M26.49 105.95 C8.83 105.95, 0 97.12, 0 79.47 M0 79.47 C0 68.47, 0 57.48, 0 26.49 M0 79.47 C0 67.63, 0 55.8, 0 26.49 M0 26.49 C0 8.83, 8.83 0, 26.49 0 M0 26.49 C0 8.83, 8.83 0, 26.49 0" stroke="#495057" stroke-width="2" fill="none"></path></g><g transform="translate(339.7074896206286 848.3596879931883) rotate(0 111.328125 12)"><text x="0" y="0" font-family="Cascadia, Segoe UI Emoji" font-size="20px" fill="#495057" text-anchor="start" style="white-space: pre;" direction="ltr" dominant-baseline="text-before-edge">Post current weight</text></g><g transform="translate(862.1528361009496 861.3356503061277) rotate(0 99.609375 24)"><text x="99.609375" y="0" font-family="Cascadia, Segoe UI Emoji" font-size="20px" fill="#495057" text-anchor="middle" style="white-space: pre;" direction="ltr" dominant-baseline="text-before-edge">Update cache with</text><text x="99.609375" y="24" font-family="Cascadia, Segoe UI Emoji" font-size="20px" fill="#495057" text-anchor="middle" style="white-space: pre;" direction="ltr" dominant-baseline="text-before-edge">current price</text></g><g stroke-linecap="round"><g transform="translate(1183.9755657100814 891.8236314625992) rotate(0 -63.834465166016344 -139.38678523020826)"><path d="M0 0 C14.87 -6.76, 78.4 2.16, 89.21 -40.55 C100.02 -83.26, 117.86 -217.35, 64.88 -256.28 C11.89 -295.2, -179.77 -271.14, -228.7 -274.12" stroke="#495057" stroke-width="2.5" fill="none" stroke-dasharray="8 10"></path></g><g transform="translate(1183.9755657100814 891.8236314625992) rotate(0 -63.834465166016344 -139.38678523020826)"><path d="M-200.82 -285.2 C-211.97 -280.77, -223.12 -276.33, -228.7 -274.12" stroke="#495057" stroke-width="2.5" fill="none"></path></g><g transform="translate(1183.9755657100814 891.8236314625992) rotate(0 -63.834465166016344 -139.38678523020826)"><path d="M-200.22 -264.68 C-211.61 -268.46, -223 -272.23, -228.7 -274.12" stroke="#495057" stroke-width="2.5" fill="none"></path></g></g><mask></mask><g transform="translate(1375.3710098259726 111.6438973969689) rotate(0 303.515625 33.600000000000364)"><text x="0" y="0" font-family="Cascadia, Segoe UI Emoji" font-size="28px" fill="#495057" text-anchor="start" style="white-space: pre;" direction="ltr" dominant-baseline="text-before-edge">User must define the kg_price of the</text><text x="0" y="33.6" font-family="Cascadia, Segoe UI Emoji" font-size="28px" fill="#495057" text-anchor="start" style="white-space: pre;" direction="ltr" dominant-baseline="text-before-edge">current menu and pass it with the API</text></g></svg>