<svg width="95" height="23" viewBox="0 0 95 23" fill="none" xmlns="http://www.w3.org/2000/svg">
<path d="M1.176 1.16H6.216C7.104 1.16 7.932 1.28 8.7 1.52C9.468 1.76 10.088 2.16 10.56 2.72C11.04 3.28 11.28 4.044 11.28 5.012C11.28 5.66 11.156 6.24 10.908 6.752C10.66 7.264 10.344 7.684 9.96 8.012C9.576 8.332 9.172 8.536 8.748 8.624C9.108 8.664 9.476 8.772 9.852 8.948C10.228 9.124 10.576 9.368 10.896 9.68C11.216 9.992 11.472 10.384 11.664 10.856C11.864 11.328 11.964 11.88 11.964 12.512C11.964 13.392 11.772 14.172 11.388 14.852C11.012 15.524 10.452 16.052 9.708 16.436C8.972 16.812 8.056 17 6.96 17H1.176V1.16ZM4.176 14.576H6.348C6.956 14.576 7.44 14.476 7.8 14.276C8.168 14.076 8.432 13.804 8.592 13.46C8.752 13.116 8.832 12.724 8.832 12.284C8.832 11.58 8.608 11.04 8.16 10.664C7.712 10.288 7.076 10.1 6.252 10.1H4.176V14.576ZM4.176 7.724H6.084C6.58 7.724 6.988 7.628 7.308 7.436C7.636 7.236 7.884 6.972 8.052 6.644C8.22 6.308 8.304 5.944 8.304 5.552C8.304 4.8 8.084 4.284 7.644 4.004C7.212 3.724 6.624 3.584 5.88 3.584H4.176V7.724ZM14.4439 17V7.148H17.4799V17H14.4439ZM16.0039 4.604C15.4999 4.604 15.0719 4.428 14.7199 4.076C14.3759 3.724 14.2039 3.304 14.2039 2.816C14.2039 2.328 14.3799 1.904 14.7319 1.544C15.0839 1.184 15.5079 1.004 16.0039 1.004C16.3319 1.004 16.6319 1.088 16.9039 1.256C17.1759 1.416 17.3959 1.632 17.5639 1.904C17.7319 2.176 17.8159 2.48 17.8159 2.816C17.8159 3.304 17.6359 3.724 17.2759 4.076C16.9239 4.428 16.4999 4.604 16.0039 4.604ZM25.2444 22.268C24.5244 22.268 23.8324 22.2 23.1684 22.064C22.5124 21.928 21.9164 21.716 21.3804 21.428C20.8444 21.14 20.3964 20.764 20.0364 20.3L21.8844 18.428C22.0524 18.644 22.2684 18.86 22.5324 19.076C22.8044 19.3 23.1484 19.484 23.5644 19.628C23.9804 19.78 24.5004 19.856 25.1244 19.856C25.7164 19.856 26.2244 19.74 26.6484 19.508C27.0804 19.284 27.4124 18.964 27.6444 18.548C27.8844 18.132 28.0044 17.648 28.0044 17.096V16.82H30.9924V17.276C30.9924 18.364 30.7364 19.28 30.2244 20.024C29.7124 20.768 29.0244 21.328 28.1604 21.704C27.2964 22.08 26.3244 22.268 25.2444 22.268ZM28.0044 17V15.284C27.9324 15.46 27.7484 15.708 27.4524 16.028C27.1564 16.348 26.7564 16.64 26.2524 16.904C25.7564 17.16 25.1724 17.288 24.5004 17.288C23.5564 17.288 22.7204 17.064 21.9924 16.616C21.2644 16.16 20.6924 15.54 20.2764 14.756C19.8684 13.964 19.6644 13.072 19.6644 12.08C19.6644 11.088 19.8684 10.2 20.2764 9.416C20.6924 8.624 21.2644 8 21.9924 7.544C22.7204 7.088 23.5564 6.86 24.5004 6.86C25.1564 6.86 25.7244 6.972 26.2044 7.196C26.6924 7.412 27.0844 7.668 27.3804 7.964C27.6844 8.252 27.8804 8.512 27.9684 8.744V7.148H30.9924V17H28.0044ZM22.6524 12.08C22.6524 12.632 22.7764 13.12 23.0244 13.544C23.2724 13.96 23.6004 14.284 24.0084 14.516C24.4164 14.748 24.8604 14.864 25.3404 14.864C25.8444 14.864 26.2924 14.748 26.6844 14.516C27.0764 14.276 27.3844 13.948 27.6084 13.532C27.8404 13.108 27.9564 12.624 27.9564 12.08C27.9564 11.536 27.8404 11.056 27.6084 10.64C27.3844 10.216 27.0764 9.884 26.6844 9.644C26.2924 9.404 25.8444 9.284 25.3404 9.284C24.8604 9.284 24.4164 9.404 24.0084 9.644C23.6004 9.876 23.2724 10.204 23.0244 10.628C22.7764 11.044 22.6524 11.528 22.6524 12.08Z" fill="#7D76F3"/>
<path d="M42.576 0.871999C43.528 0.871999 44.356 0.979999 45.06 1.196C45.772 1.404 46.336 1.628 46.752 1.868C47.176 2.108 47.432 2.264 47.52 2.336L46.056 4.772C45.928 4.668 45.708 4.524 45.396 4.34C45.092 4.148 44.724 3.98 44.292 3.836C43.86 3.684 43.392 3.608 42.888 3.608C42.16 3.608 41.576 3.748 41.136 4.028C40.704 4.3 40.488 4.696 40.488 5.216C40.488 5.568 40.604 5.884 40.836 6.164C41.068 6.436 41.408 6.692 41.856 6.932C42.312 7.172 42.868 7.424 43.524 7.688C44.1 7.912 44.648 8.172 45.168 8.468C45.696 8.764 46.164 9.112 46.572 9.512C46.988 9.912 47.316 10.376 47.556 10.904C47.804 11.432 47.928 12.036 47.928 12.716C47.928 13.476 47.772 14.14 47.46 14.708C47.156 15.276 46.732 15.752 46.188 16.136C45.652 16.52 45.036 16.808 44.34 17C43.644 17.192 42.912 17.288 42.144 17.288C41.104 17.288 40.168 17.168 39.336 16.928C38.512 16.68 37.844 16.416 37.332 16.136C36.82 15.856 36.52 15.676 36.432 15.596L37.968 13.064C38.064 13.136 38.244 13.252 38.508 13.412C38.78 13.572 39.108 13.736 39.492 13.904C39.884 14.072 40.308 14.216 40.764 14.336C41.228 14.456 41.7 14.516 42.18 14.516C43.044 14.516 43.696 14.336 44.136 13.976C44.576 13.616 44.796 13.148 44.796 12.572C44.796 12.14 44.656 11.76 44.376 11.432C44.096 11.104 43.7 10.804 43.188 10.532C42.684 10.252 42.08 9.968 41.376 9.68C40.672 9.384 40.016 9.04 39.408 8.648C38.808 8.248 38.324 7.76 37.956 7.184C37.588 6.6 37.404 5.884 37.404 5.036C37.404 4.196 37.64 3.464 38.112 2.84C38.592 2.216 39.224 1.732 40.008 1.388C40.8 1.044 41.656 0.871999 42.576 0.871999ZM49.4124 7.148H51.1884V3.104H54.2124V7.148H56.5404V9.68H54.2124V13.244C54.2124 13.716 54.2884 14.084 54.4404 14.348C54.5924 14.604 54.8324 14.732 55.1604 14.732C55.4084 14.732 55.6124 14.684 55.7724 14.588C55.9324 14.484 56.0284 14.412 56.0604 14.372L57.1404 16.556C57.0924 16.604 56.9364 16.688 56.6724 16.808C56.4164 16.928 56.0844 17.036 55.6764 17.132C55.2764 17.236 54.8244 17.288 54.3204 17.288C53.4164 17.288 52.6684 17.028 52.0764 16.508C51.4844 15.98 51.1884 15.164 51.1884 14.06V9.68H49.4124V7.148ZM63.5025 17.288C62.4545 17.288 61.5185 17.064 60.6945 16.616C59.8785 16.168 59.2385 15.556 58.7745 14.78C58.3105 13.996 58.0785 13.104 58.0785 12.104C58.0785 11.104 58.3105 10.212 58.7745 9.428C59.2385 8.636 59.8785 8.012 60.6945 7.556C61.5185 7.092 62.4545 6.86 63.5025 6.86C64.5585 6.86 65.4905 7.092 66.2985 7.556C67.1065 8.012 67.7385 8.636 68.1945 9.428C68.6505 10.212 68.8785 11.104 68.8785 12.104C68.8785 13.104 68.6505 13.996 68.1945 14.78C67.7385 15.556 67.1065 16.168 66.2985 16.616C65.4905 17.064 64.5585 17.288 63.5025 17.288ZM63.5025 14.756C64.0065 14.756 64.4425 14.644 64.8105 14.42C65.1865 14.188 65.4745 13.872 65.6745 13.472C65.8825 13.064 65.9865 12.604 65.9865 12.092C65.9865 11.58 65.8825 11.12 65.6745 10.712C65.4745 10.304 65.1865 9.984 64.8105 9.752C64.4425 9.512 64.0065 9.392 63.5025 9.392C62.9985 9.392 62.5585 9.512 62.1825 9.752C61.8145 9.984 61.5265 10.304 61.3185 10.712C61.1105 11.12 61.0065 11.58 61.0065 12.092C61.0065 12.604 61.1105 13.064 61.3185 13.472C61.5265 13.872 61.8145 14.188 62.1825 14.42C62.5585 14.644 62.9985 14.756 63.5025 14.756ZM77.2123 6.86C77.8843 6.86 78.5403 7 79.1803 7.28C79.8203 7.552 80.3443 7.988 80.7523 8.588C81.1683 9.188 81.3763 9.972 81.3763 10.94V17H78.3163V11.468C78.3163 10.66 78.1243 10.06 77.7403 9.668C77.3643 9.276 76.8683 9.08 76.2523 9.08C75.8523 9.08 75.4683 9.192 75.1003 9.416C74.7403 9.632 74.4443 9.936 74.2123 10.328C73.9883 10.712 73.8763 11.152 73.8763 11.648V17H70.8283V7.148H73.8763V8.72C73.9643 8.448 74.1643 8.168 74.4763 7.88C74.7883 7.592 75.1843 7.352 75.6643 7.16C76.1443 6.96 76.6603 6.86 77.2123 6.86ZM86.0126 12.752C86.0366 13.2 86.1566 13.6 86.3726 13.952C86.5886 14.304 86.9006 14.58 87.3086 14.78C87.7246 14.98 88.2206 15.08 88.7966 15.08C89.3166 15.08 89.7726 15.016 90.1646 14.888C90.5646 14.76 90.9006 14.604 91.1726 14.42C91.4526 14.228 91.6606 14.044 91.7966 13.868L93.0566 15.74C92.8326 16.02 92.5326 16.28 92.1566 16.52C91.7886 16.752 91.3166 16.936 90.7406 17.072C90.1726 17.216 89.4606 17.288 88.6046 17.288C87.5246 17.288 86.5766 17.076 85.7606 16.652C84.9446 16.228 84.3086 15.616 83.8526 14.816C83.3966 14.016 83.1686 13.064 83.1686 11.96C83.1686 11 83.3726 10.136 83.7806 9.368C84.1886 8.592 84.7806 7.98 85.5566 7.532C86.3406 7.084 87.2806 6.86 88.3766 6.86C89.4086 6.86 90.3006 7.06 91.0526 7.46C91.8126 7.852 92.4006 8.428 92.8166 9.188C93.2326 9.948 93.4406 10.876 93.4406 11.972C93.4406 12.036 93.4366 12.168 93.4286 12.368C93.4286 12.56 93.4206 12.688 93.4046 12.752H86.0126ZM90.5846 10.868C90.5766 10.612 90.4966 10.336 90.3446 10.04C90.2006 9.744 89.9726 9.492 89.6606 9.284C89.3486 9.076 88.9326 8.972 88.4126 8.972C87.8926 8.972 87.4646 9.072 87.1286 9.272C86.8006 9.472 86.5526 9.72 86.3846 10.016C86.2166 10.304 86.1206 10.588 86.0966 10.868H90.5846Z" fill="url(#paint0_linear_811_2)"/>
<defs>
<linearGradient id="paint0_linear_811_2" x1="38" y1="11" x2="99.5" y2="11" gradientUnits="userSpaceOnUse">
<stop stop-color="#3D70F4"/>
<stop offset="1" stop-color="#756EDB"/>
</linearGradient>
</defs>
</svg>
